<?xml version="1.0" encoding="iso-8859-1"?>
<!-- Generator: Adobe Illustrator 19.0.0, SVG Export Plug-In . SVG Version: 6.00 Build 0)  -->
<svg version="1.1" id="Capa_1" xmlns="http://www.w3.org/2000/svg" xmlns:xlink="http://www.w3.org/1999/xlink" x="0px" y="0px"
	 viewBox="0 0 512 512" style="enable-background:new 0 0 512 512;" xml:space="preserve">
<g>
	<g>
		<path d="M433.121,85.076C385.56,61.296,322.657,48.199,256,48.199S126.44,61.296,78.879,85.076
			C28.013,110.509,0,145.533,0,183.699c0,38.166,28.013,73.191,78.879,98.623c47.561,23.78,110.464,36.877,177.121,36.877
			s129.56-13.097,177.121-36.877C483.987,256.89,512,221.865,512,183.699C512,145.533,483.987,110.509,433.121,85.076z"/>
	</g>
</g>
<g>
	<g>
		<path d="M446.538,309.155C394.892,334.978,327.224,349.199,256,349.199s-138.892-14.222-190.538-40.044
			C38.027,295.438,16.03,278.992,0,260.227v68.074c0,38.164,28.013,73.189,78.879,98.623
			C126.44,450.703,189.343,463.801,256,463.801s129.56-13.098,177.121-36.877C483.987,401.49,512,366.465,512,328.301v-68.074
			C495.97,278.992,473.973,295.438,446.538,309.155z"/>
	</g>
</g>
<g>
</g>
<g>
</g>
<g>
</g>
<g>
</g>
<g>
</g>
<g>
</g>
<g>
</g>
<g>
</g>
<g>
</g>
<g>
</g>
<g>
</g>
<g>
</g>
<g>
</g>
<g>
</g>
<g>
</g>
</svg>
