<svg height="512" viewBox="0 0 512 512" width="512" xmlns="http://www.w3.org/2000/svg"><g id="Layer_14" data-name="Layer 14"><path d="m323.871 204.794c.1-.669.224-1.331.355-1.991.066-.336.133-.672.191-1.009a101.643 101.643 0 0 0 -27.563-88.975 104.533 104.533 0 0 0 -90.628-31.035c-99.957 14.121-113.057 106.283-114.691 134.193a11.064 11.064 0 0 0 3.035 8.235l82.541 86.769a138.865 138.865 0 0 0 56.945-4.008c36.535-10.679 79.761-31.945 89.815-102.179z"/><path d="m468.464 343.121a253.521 253.521 0 0 1 -20.9-19.363c-4.254 12.7-12.78 19.458-20.7 22.628a227.188 227.188 0 0 1 20.466 19.179 40.375 40.375 0 0 0 9.323-4.61c6.732-4.549 10.689-10.543 11.811-17.834z"/><path d="m87.422 289.609a59.1 59.1 0 0 1 -4.148-7.789 160.839 160.839 0 0 1 -12.492 21.78q-2.311 3.416-4.708 6.634c2.027 5.66 8.8 20.264 24.891 21.244a128.329 128.329 0 0 1 26.794-17.81c-15.934-5.981-25.154-15.878-30.337-24.059z"/><path d="m34.612 344.334c-6.533 5.774-11.777 9.751-14.46 11.7a9.988 9.988 0 0 0 -3.217 12.3c2.941 6.256 8.211 14.521 16.618 18.374a9.44 9.44 0 0 0 11.681-3.408c2.956-4.3 7.1-10.077 12.2-16.535a37.294 37.294 0 0 1 -22.822-22.431z"/><path d="m59.034 319.2a226.029 226.029 0 0 1 -16.234 17.536c1.16 5.258 5.6 18.087 21.542 21.591a251.189 251.189 0 0 1 17.339-18.5c-11.246-3.661-18.574-12.596-22.647-20.627z"/><path d="m89.121 267.069c.917 5.9 7.3 34.316 45.317 40.7a56.09 56.09 0 0 1 25.86.052h.009l-66.276-69.67a97.488 97.488 0 0 1 -4.91 28.918z"/><path d="m415.944 272.437a55.846 55.846 0 0 1 .219-28.512 108.284 108.284 0 0 0 2.507-11.417l-73.524 79.158a95.408 95.408 0 0 1 25.035 3.482c5.58.09 40.113-1.114 45.763-42.711z"/><path d="m439.524 314.842a130.175 130.175 0 0 1 -17.348-25.68c-6.225 17.241-17.7 26.03-27.291 30.492a56.858 56.858 0 0 1 -5.982 2.376 160.354 160.354 0 0 1 22.6 12.845q2.751 1.857 5.378 3.769c4.751-.56 19.132-3.901 22.643-23.802z"/><path d="m411.718 175.717c-16.915-37.206-47.891-83.642-99.4-93.572q-1.389-.265-2.763-.5a101.842 101.842 0 0 0 -38.164.5 116.078 116.078 0 0 1 32.643 23.722 111.542 111.542 0 0 1 30.234 97.644c-.072.413-.153.827-.235 1.241-.1.484-.194.97-.264 1.462-7.814 54.587-35.157 81.978-63.372 97.069 20.891 9.4 37.524 10.148 49 10.664 1.54.07 2.992.135 4.357.215a11.133 11.133 0 0 0 8.154-2.935l88.177-94.931a95.9 95.9 0 0 0 -8.367-40.579z"/><path d="m492.567 361.24c-4.071-2.758-9.455-6.562-15.493-11.223-3.955 12.288-14 19.755-22.543 23.529 4.582 5.327 7.8 9.564 9.484 11.882a10.034 10.034 0 0 0 12.34 3.214c6.911-3.238 15.854-9.1 19.227-18.618a7.6 7.6 0 0 0 -3.015-8.784z"/><path d="m254.972 334.314a48.8 48.8 0 1 0 48.87 48.8 48.891 48.891 0 0 0 -48.87-48.8zm.913 26.95a21.9 21.9 0 0 0 -21.894 21.853 5 5 0 0 1 -10 0 31.91 31.91 0 0 1 31.894-31.853 5 5 0 0 1 0 10z"/></g></svg>