<svg id="Capa_1" enable-background="new 0 0 512 512" height="512" viewBox="0 0 512 512" width="512" xmlns="http://www.w3.org/2000/svg"><g><path d="m29.075 224.036c39.902 66.156 85.432 110.496 135.323 131.788 49.753 21.231 88.365 12.794 106.951 5.871 1.315-.489 2.222-.803 2.885-1.025-2.028-44.396-17.585-75.469-25.867-89.02-1.545.051-3.255.083-5.133.083-36.641.001-134.598-11.866-208.624-128.165-.134-.211-.263-.425-.386-.642l-4.2-7.389c-9.244 17.274-16.426 35.553-21.455 54.52l20.31 33.664c.067.105.132.209.196.315z"/><path d="m464.246 120.602 8.86-.316c-10.172-16.191-22.233-31.359-36.087-45.213-.228-.228-.462-.447-.691-.674l-38.876 1.196c-.059.002-.117.003-.176.004-163.644 3.12-231.885 79.209-240.859 144.007 39.399 20.39 74.028 22.473 89.925 22.09.03-.057.058-.107.089-.166 14.369-26.78 72.532-114.645 217.701-120.924.039-.001.076-.003.114-.004z"/><path d="m387.316 279.383c-8.084-52.029-35.29-79.787-49.873-91.239-37.678 24.144-56.801 53.322-64.147 66.779 16.706 26.856 62.97 120.523-3.955 249.025l-4.028 7.959c18.912-.672 37.463-3.385 55.403-8.038l21.051-35.342c38.252-69.332 54.003-134.735 45.549-189.144z"/><path d="m242.617 490.319c.026-.053.054-.105.081-.158 18.771-36.024 27.673-68.786 30.609-97.499-11.714 3.53-27.417 6.673-46.262 6.673-21.25 0-46.473-3.991-74.422-15.919-55.746-23.79-105.91-72.123-149.102-143.662-.066-.104-.131-.208-.194-.313l-2.487-4.121c-.548 6.874-.84 13.801-.84 20.772 0 68.38 26.628 132.667 74.981 181.02 42.687 42.688 97.796 68.428 157.174 73.877z"/><path d="m465.384 150.581c-40.535 1.759-73.346 10.464-99.681 22.301 26.556 24.925 44.917 61.082 51.258 101.896 4.498 28.951 3.177 60.298-3.926 93.172-7.911 36.615-23.094 75.407-45.124 115.296-.079.143-2.687 4.524-2.687 4.524 26.329-12.435 50.594-29.456 71.795-50.657 48.353-48.353 74.98-112.64 74.98-181.02 0-37.314-7.947-73.402-23.009-106.355z"/><path d="m60.117 127.77c21.769 34.122 45.627 58.128 68.965 74.984 8.542-36.394 31.651-71.224 64.986-97.28 48.716-38.08 116.86-58.223 202.551-59.868l4.965-.152c-42.46-29.48-92.799-45.362-145.584-45.362-68.38 0-132.667 26.628-181.019 74.98-9.886 9.887-18.848 20.449-26.876 31.566z"/></g></svg>